<svg width="781" height="405" viewBox="0 0 781 405" fill="none" xmlns="http://www.w3.org/2000/svg">
<path d="M218.4 262.4C247.6 237.6 246.8 177.6 215.2 122C180.8 62.8 123.6 32 87.2 52.8C51.2 73.6 49.2 138.8 83.6 198C106.4 237.6 170 301.2 218.4 262.4ZM9.6 160C9.6 82.8 72 20 149.6 20C226.8 20 289.6 82.8 289.6 160C289.6 210.4 262.8 254.8 222.8 279.2C169.6 321.2 289.6 313.6 289.6 313.6V377.2C231.2 374.8 159.6 344.8 188.8 294.4C176.4 298.4 163.2 300 149.2 300C72 300 9.6 237.6 9.6 160Z" fill="#D8973C"/>
<path d="M413.16 313.5L397.58 365.655L393.305 380L384.565 367.84L371.36 349.695L358.25 367.84L349.51 379.905L345.235 365.655L329.75 313.5H342.1L354.07 353.59L364.14 339.625L366.04 336.965L371.455 329.555L376.87 336.965L378.77 339.625L388.84 353.59L400.81 313.5H413.16ZM464.307 313.5C482.642 313.5 497.557 328.415 497.557 346.75C497.557 365.085 482.642 380 464.307 380C445.972 380 431.057 365.085 431.057 346.75C431.057 328.415 445.972 313.5 464.307 313.5ZM464.307 368.125C476.087 368.125 485.682 358.53 485.682 346.75C485.682 334.97 476.087 325.375 464.307 325.375C452.527 325.375 442.932 334.97 442.932 346.75C442.932 358.53 452.527 368.125 464.307 368.125ZM566.998 349.315L576.498 368.315L582.578 380.19H569.278L563.198 368.315L556.833 355.87L556.548 355.3C554.458 351.88 550.753 349.6 546.478 349.6H534.603V380.19H522.728V313.69H564.718C569.658 313.69 574.123 315.685 577.353 318.915C580.583 322.145 582.578 326.61 582.578 331.55C582.578 338.77 578.303 345.04 572.128 347.89C570.513 348.65 568.803 349.125 566.998 349.315ZM534.603 337.82L564.718 337.725C565.573 337.725 566.428 337.535 567.188 337.155C569.373 336.205 570.798 334.02 570.798 331.645C570.798 329.46 569.658 327.94 568.993 327.275C568.233 326.515 566.808 325.565 564.718 325.565H534.603V337.82ZM676.767 313.5L647.697 340.195L676.482 380H661.852L638.862 348.27L622.047 363.565V380H610.172V313.5H622.047V347.51L631.832 338.58L640.667 330.505L659.192 313.5H676.767ZM759.86 331.835L747.985 331.93V331.55C747.985 328.225 745.23 325.47 741.905 325.47H714.925C711.6 325.47 708.845 328.225 708.845 331.55V331.93C708.845 335.255 711.6 338.01 714.925 338.01H738.865C745.04 338.01 750.55 340.67 754.35 344.85C754.635 345.135 754.825 345.42 755.11 345.705C758.055 349.315 759.86 353.97 759.86 359.005C759.86 370.595 750.455 380 738.865 380H718.06C706.47 380 697.065 370.595 697.065 359.005H708.94C708.94 364.04 713.025 368.125 718.06 368.125H738.865C743.9 368.125 748.08 364.04 748.08 359.005C748.08 353.97 743.9 349.885 738.865 349.885H714.925C710.08 349.885 705.71 347.985 702.48 344.85C701.625 343.995 700.865 343.045 700.2 342C698.205 339.15 697.065 335.635 697.065 331.835V331.455C697.065 321.575 705.045 313.5 714.925 313.5H741.905C751.785 313.5 759.86 321.575 759.86 331.455V331.835Z" fill="#D8973C"/>
<path d="M462.25 273H443.5H424.75H406H387.25H368.5H349.75H331V254.25V235.5V216.75V198V179.25V160.5V141.75V123V104.25V85.5V66.75H349.75H368.5H387.25H406H424.75H443.5H462.25H481V85.5H499.75V104.25V123V141.75H481V160.5H499.75V179.25V198V216.75V235.5V254.25H481V273H462.25ZM443.5 235.5H462.25V216.75V198V179.25H443.5H424.75H406H387.25H368.5V198V216.75V235.5H387.25H406H424.75H443.5ZM443.5 141.75H462.25V123V104.25H443.5H424.75H406H387.25H368.5V123V141.75H387.25H406H424.75H443.5ZM556 273H537.25V254.25V235.5V216.75V198V179.25V160.5V141.75V123V104.25V85.5V66.75H556H574.75V85.5V104.25V123V141.75V160.5V179.25V198V216.75V235.5V254.25V273H556ZM668.5 273H649.75V254.25V235.5V216.75V198V179.25V160.5V141.75V123V104.25H631H612.25H593.5V85.5V66.75H612.25H631H649.75H668.5H687.25H706H724.75H743.5H762.25V85.5V104.25H743.5H724.75H706H687.25V123V141.75V160.5V179.25V198V216.75V235.5V254.25V273H668.5Z" fill="white"/>
</svg>
